<?xml version="1.0" standalone="no"?><!DOCTYPE svg PUBLIC "-//W3C//DTD SVG 1.1//EN" "http://www.w3.org/Graphics/SVG/1.1/DTD/svg11.dtd"><svg t="1758814984710" class="icon" viewBox="0 0 1024 1024" version="1.1" xmlns="http://www.w3.org/2000/svg" p-id="1524" xmlns:xlink="http://www.w3.org/1999/xlink" width="200" height="200"><path d="M480.704 960h63.712v-123.296l68.864 68.256 44.96-44.544-113.792-112.8v-180.032l177.28 102.432 41.664 155.648 60.736-16.288-25.408-94.88 85.248 49.28 31.872-55.232-84.736-48.96 94.496-25.344-16.48-61.632-156.064 41.856-176.928-102.24 177.664-102.656 155.52 41.696 16.288-60.8-94.784-25.408 85.248-49.28-31.872-55.232-84.736 48.96 25.312-94.592L763.2 198.4l-41.824 156.192-176.96 102.24V251.488l113.856-113.952-44.448-44.512-69.408 69.44v-98.56h-63.712v97.92L411.52 92.576l-45.056 45.12 114.24 114.368v204.96l-156.544-90.464L283.456 211.52l-60.192 16.448 24.832 94.624-107.552-62.144-31.872 55.232 106.656 61.632-93.472 25.568 16.064 61.248 154.496-42.24 156.16 90.24-156.128 90.24-154.496-42.24-15.84 60.416 94.304 25.792-107.52 62.144 31.872 55.232 106.656-61.632-24.608 93.792 61.024 16.672 40.704-155.04 156.192-90.24v180.448l-113.792 112.8 44.352 43.936 69.472-68.832v124.288z" p-id="1525" fill="#df6b1d"></path></svg>